<svg width="24" height="25" viewBox="0 0 24 25" fill="none" xmlns="http://www.w3.org/2000/svg">
<path d="M3 7.87305C3 5.52584 4.90279 3.62305 7.25 3.62305V3.62305V11.613C7.25 11.8947 7.02167 12.123 6.74 12.123H3.53125C3.23785 12.123 3 11.8852 3 11.5918V7.87305Z" fill="#3F80FF"/>
<path d="M19.45 3.62305C19.7538 3.62305 20 3.86929 20 4.17305L20 7.32695C20 7.63071 19.7538 7.87695 19.45 7.87695L7 7.87695L7 3.62305L19.45 3.62305Z" fill="#3F80FF"/>
<path fill-rule="evenodd" clip-rule="evenodd" d="M8 7.62305H7V8.62305H7.25V8.41511C7.25 8.11136 7.49624 7.86511 7.8 7.86511H8V7.62305Z" fill="#3F80FF"/>
<path d="M20 16.373C20 18.7203 18.0972 20.623 15.75 20.623V20.623L15.75 12.633C15.75 12.3514 15.9783 12.123 16.26 12.123L19.4688 12.123C19.7622 12.123 20 12.3609 20 12.6543L20 16.373Z" fill="#FF2768"/>
<path d="M3.55 20.623C3.24624 20.623 3 20.3768 3 20.073L3 16.9191C3 16.6154 3.24624 16.3691 3.55 16.3691L16 16.3691L16 20.623L3.55 20.623Z" fill="#FF2768"/>
<path fill-rule="evenodd" clip-rule="evenodd" d="M15 16.623L16 16.623L16 15.623L15.75 15.623L15.75 15.831C15.75 16.1347 15.5038 16.381 15.2 16.381L15 16.381L15 16.623Z" fill="#FF2768"/>
</svg>
