<svg width="24" height="24" viewBox="0 0 24 24" fill="none" xmlns="http://www.w3.org/2000/svg">
<path d="M3 7.5C3 5.01472 5.01472 3 7.5 3V3V11.49C7.5 11.7717 7.27167 12 6.99 12H3.5625C3.25184 12 3 11.7482 3 11.4375V7.5Z" fill="#3F80FF"/>
<path d="M20.45 3C20.7538 3 21 3.24624 21 3.55L21 6.95413C21 7.25789 20.7538 7.50414 20.45 7.50414L7.23529 7.50413L7.23529 3L20.45 3Z" fill="#3F80FF"/>
<path fill-rule="evenodd" clip-rule="evenodd" d="M8.29418 7.23535H7.23535V8.29418H7.5V8.0416C7.5 7.73784 7.74624 7.4916 8.05 7.4916H8.29418V7.23535Z" fill="#3F80FF"/>
<path d="M21 16.5C21 18.9853 18.9853 21 16.5 21V21L16.5 12.51C16.5 12.2283 16.7283 12 17.01 12L20.4375 12C20.7482 12 21 12.2518 21 12.5625L21 16.5Z" fill="#FF2768"/>
<path d="M3.55 21C3.24624 21 3 20.7538 3 20.45L3 17.0459C3 16.7421 3.24624 16.4959 3.55 16.4959L16.7647 16.4959L16.7647 21L3.55 21Z" fill="#FF2768"/>
<path fill-rule="evenodd" clip-rule="evenodd" d="M15.7058 16.7646L16.7646 16.7646L16.7646 15.7058L16.5 15.7058L16.5 15.9584C16.5 16.2622 16.2538 16.5084 15.95 16.5084L15.7058 16.5084L15.7058 16.7646Z" fill="#FF2768"/>
</svg>
